<svg xmlns="http://www.w3.org/2000/svg" width="1280" height="720" viewBox="0 0 1280 720" role="img" aria-labelledby="title desc">
  <title id="title">Open traces before and after</title>
  <desc id="desc">Many raw trace messages and spans on the left become a small set of understandable WorkUnits with evidence, review state, and optional economics on the right.</desc>
  <defs>
    <linearGradient id="bg" x1="0" x2="1" y1="0" y2="1">
      <stop offset="0%" stop-color="#f7f3e9"/>
      <stop offset="100%" stop-color="#ece4d2"/>
    </linearGradient>
    <linearGradient id="panel" x1="0" x2="1" y1="0" y2="1">
      <stop offset="0%" stop-color="#fffef9"/>
      <stop offset="100%" stop-color="#f8f2e5"/>
    </linearGradient>
    <filter id="shadow" x="-20%" y="-20%" width="140%" height="140%">
      <feDropShadow dx="0" dy="12" stdDeviation="14" flood-color="#1e2430" flood-opacity="0.12"/>
    </filter>
  </defs>
  <rect width="1280" height="720" fill="url(#bg)"/>
  <text x="96" y="84" font-size="40" font-family="Georgia, serif" fill="#12212c">Open traces to work</text>
  <text x="96" y="122" font-size="22" font-family="Georgia, serif" fill="#44606b">Observability tells you what ran. workledger tells you what work happened.</text>

  <rect x="72" y="168" width="500" height="472" rx="28" fill="url(#panel)" stroke="#d8ccb6" filter="url(#shadow)"/>
  <text x="108" y="218" font-size="28" font-family="Georgia, serif" fill="#8a3b12">Before: raw public traces</text>
  <text x="108" y="252" font-size="18" font-family="Menlo, monospace" fill="#3e4b55">messages / steps / spans / tool calls</text>

  <g font-family="Menlo, monospace" font-size="18" fill="#1f2a32">
    <rect x="108" y="286" width="428" height="58" rx="14" fill="#f2ebe0" stroke="#d4c7b4"/>
    <text x="128" y="320">user: solve the GAIA task</text>
    <rect x="108" y="356" width="428" height="58" rx="14" fill="#f2ebe0" stroke="#d4c7b4"/>
    <text x="128" y="390">assistant: inspect trajectory</text>
    <rect x="108" y="426" width="428" height="58" rx="14" fill="#f2ebe0" stroke="#d4c7b4"/>
    <text x="128" y="460">tool: search / retrieve / calculate</text>
    <rect x="108" y="496" width="428" height="58" rx="14" fill="#f2ebe0" stroke="#d4c7b4"/>
    <text x="128" y="530">llm span: draft answer</text>
    <rect x="108" y="566" width="428" height="42" rx="14" fill="#f8d9c9" stroke="#cf9f84"/>
    <text x="128" y="592">hard to see the work boundary</text>
  </g>

  <path d="M612 404 L674 404" stroke="#0f766e" stroke-width="8" stroke-linecap="round"/>
  <polygon points="674,404 648,388 648,420" fill="#0f766e"/>

  <rect x="708" y="168" width="500" height="472" rx="28" fill="url(#panel)" stroke="#c5d6cf" filter="url(#shadow)"/>
  <text x="744" y="218" font-size="28" font-family="Georgia, serif" fill="#0f766e">After: understandable work</text>
  <text x="744" y="252" font-size="18" font-family="Menlo, monospace" fill="#3e4b55">fewer WorkUnits with evidence, review, and optional cost</text>

  <g font-family="Menlo, monospace" font-size="17" fill="#18242b">
    <rect x="744" y="292" width="428" height="86" rx="18" fill="#ecf7f3" stroke="#9fc6b9"/>
    <text x="766" y="322">title: solve GAIA lookup task</text>
    <text x="766" y="346">type: ai_work   status: review_needed</text>
    <text x="766" y="370">evidence: 5 refs   spans: 4</text>

    <rect x="744" y="400" width="428" height="86" rx="18" fill="#ecf7f3" stroke="#9fc6b9"/>
    <text x="766" y="430">title: search supporting facts</text>
    <text x="766" y="454">type: augmented_ai_work   status: clear</text>
    <text x="766" y="478">evidence: 3 refs   spans: 3</text>

    <rect x="744" y="508" width="428" height="86" rx="18" fill="#ecf7f3" stroke="#9fc6b9"/>
    <text x="766" y="538">title: return final answer</text>
    <text x="766" y="562">type: reviewed_ai_work   optional cost/duration</text>
    <text x="766" y="586">lineage preserved: hf://dataset/split/row#message</text>
  </g>
</svg>
